<svg xmlns="http://www.w3.org/2000/svg"  viewBox="0 0 24 24" width="26px" height="26px"><path d="M18.001,17c0.15,0,0.303-0.034,0.446-0.105C20.838,15.699,22,14.262,22,12.5c0-1.93-1.57-3.5-3.5-3.5c-0.552,0-1,0.448-1,1 s0.448,1,1,1c0.827,0,1.5,0.673,1.5,1.5c0,0.593-0.254,1.509-2.447,2.605c-0.494,0.247-0.694,0.848-0.447,1.342 C17.281,16.798,17.634,17,18.001,17z"/><path d="M19.506,18.777C18.102,19.52,15.155,20,12,20c-4.738,0-7.388-0.983-7.935-1.498c0.29-0.265,1.278-0.808,3.588-1.18 c0.045-0.007,0.081-0.033,0.124-0.046c0.911,0.59,2.328,0.886,4.332,0.886c0.883,0,1.878-0.056,2.99-0.167 c0.549-0.055,0.95-0.545,0.896-1.095c-0.055-0.549-0.541-0.951-1.095-0.896c-5.438,0.544-6.211-0.503-6.281-0.625 c-0.093-0.16-0.009-0.408,0.078-0.589c0.922,0.175,2.128,0.284,3.719,0.284c0.721,0,1.521-0.022,2.409-0.07l0.125-0.006 c0.072,0.004,0.149-0.001,0.226-0.015c0.52-0.093,0.891-0.578,0.83-1.103c-0.041-0.351-0.263-0.935-1.289-0.874 c-6.484,0.352-7.209-0.793-7.213-0.805c0-0.001,0.002-0.039,0.019-0.1c1.47,0.246,2.846,0.343,4.043,0.343 c2.726,0,4.563-0.448,4.678-0.476c0.536-0.134,0.861-0.677,0.728-1.213c-0.134-0.536-0.678-0.86-1.213-0.728 c-0.038,0.009-3.839,0.934-8.561-0.01c-0.024-0.005-0.048-0.01-0.071-0.015C7.5,9.869,7.995,9.717,8.639,9.563 c0.537-0.128,0.869-0.668,0.74-1.205s-0.668-0.867-1.205-0.74c-3.491,0.833-3.922,1.791-3.909,2.531 c0.015,0.79,0.644,1.23,1.309,1.493c-0.161,0.641-0.026,1.15,0.167,1.509c0.177,0.331,0.471,0.693,1.049,1.014 c-0.149,0.387-0.246,0.843-0.195,1.317C4.351,15.924,2,16.793,2,18.5C2,21.263,8.286,22,12,22c3.563,0,6.719-0.544,8.441-1.456 c0.488-0.258,0.674-0.863,0.416-1.352C20.6,18.705,19.996,18.519,19.506,18.777z"/><path d="M12,10c-0.367,0-0.72-0.203-0.895-0.553C10.921,9.078,10,7.176,10,6c0-2.414,1.271-3.686,2.293-4.707 c0.391-0.391,1.023-0.391,1.414,0s0.391,1.023,0,1.414C12.753,3.661,12,4.414,12,6c0,0.519,0.534,1.83,0.895,2.553 c0.247,0.494,0.046,1.094-0.448,1.341C12.303,9.966,12.151,10,12,10z" opacity=".35"/><g opacity=".35"><path d="M15.009,11.947c-0.228,0-0.453-0.074-0.633-0.23c-0.417-0.363-0.494-0.957-0.131-1.374l0.07-0.08 c0.378-0.432,0.521-0.594-0.264-2.947c-0.933-2.8,2.243-5.044,2.378-5.138c0.454-0.316,1.077-0.203,1.392,0.251 c0.315,0.454,0.203,1.077-0.251,1.392c-0.019,0.013-2.074,1.504-1.622,2.862c0.997,2.99,0.859,3.769-0.129,4.898 C15.614,11.818,15.31,11.947,15.009,11.947z"/></g></svg>